<?xml version="1.0" standalone="no"?><!DOCTYPE svg PUBLIC "-//W3C//DTD SVG 1.1//EN" "http://www.w3.org/Graphics/SVG/1.1/DTD/svg11.dtd"><svg t="1711114655074" class="icon" viewBox="0 0 1024 1024" version="1.1" xmlns="http://www.w3.org/2000/svg" p-id="4698" xmlns:xlink="http://www.w3.org/1999/xlink" width="200" height="200"><path d="M927.56 226.568L551.38 9.384c-21.67-12.512-57.134-12.512-78.804 0L96.402 226.568C74.73 239.08 57 269.792 57 294.816v434.368c1.686 29.144 16.572 53.28 39.4 68.248l376.18 217.182c21.668 12.514 57.132 12.514 78.802 0L927.56 797.432c24.496-16.292 38.44-40.816 39.402-68.248V294.816c-0.88-26.33-16.646-52.886-39.4-68.248zM208.66 512.002c-1.782-296.18 394.92-426.96 565.992-151.756l-131.268 75.96c-79.244-131.066-276.002-84.2-283.064 75.796 2.12 147.458 195.508 215.956 283.072 75.784l131.27 75.96c-150.766 261.724-558.4 167.56-566-151.744z m606.64 16.848h-33.704v33.704H747.9v-33.704h-33.704v-33.7h33.704v-33.7h33.7v33.7h33.702v33.7z m126.384 0H907.98v33.704h-33.7v-33.704H840.58v-33.7h33.704v-33.7h33.698v33.7h33.704v33.7z" fill="#1E9CEF" p-id="4699"></path></svg>