<?xml version="1.0" standalone="no"?><!DOCTYPE svg PUBLIC "-//W3C//DTD SVG 1.1//EN" "http://www.w3.org/Graphics/SVG/1.1/DTD/svg11.dtd"><svg t="1711114723336" class="icon" viewBox="0 0 1024 1024" version="1.1" xmlns="http://www.w3.org/2000/svg" p-id="1878" xmlns:xlink="http://www.w3.org/1999/xlink" width="200" height="200"><path d="M77.269333 457.173333c-2.005333 0-2.474667-0.981333-1.493333-2.517333l10.496-13.44c0.981333-1.493333 3.456-2.474667 5.461333-2.474667h178.005334c1.962667 0 2.474667 1.493333 1.493333 2.986667l-8.490667 12.928c-0.981333 1.536-3.498667 2.986667-4.992 2.986667l-180.48-0.469334zM2.005333 503.04c-2.005333 0-2.517333-0.981333-1.493333-2.474667l10.453333-13.482666c0.981333-1.493333 3.498667-2.474667 5.504-2.474667h227.328c2.005333 0 2.986667 1.493333 2.474667 2.986667l-3.968 11.946666c-0.512 2.005333-2.474667 2.986667-4.48 2.986667l-235.818667 0.512z m120.661334 45.866667c-2.005333 0-2.517333-1.493333-1.493334-2.986667l6.954667-12.458667c0.981333-1.493333 2.986667-2.986667 4.992-2.986666h99.712c2.005333 0 2.986667 1.493333 2.986667 3.498666l-0.981334 11.946667c0 2.005333-2.005333 3.498667-3.498666 3.498667l-108.672-0.512z m517.504-100.693334c-31.402667 7.978667-52.864 13.952-83.754667 21.930667-7.509333 1.962667-7.978667 2.474667-14.506667-4.992-7.424-8.490667-12.928-13.952-23.381333-18.944-31.445333-15.445333-61.866667-10.965333-90.24 7.466667-33.92 21.930667-51.370667 54.357333-50.858667 94.72 0.469333 39.893333 27.904 72.789333 67.285334 78.293333 33.92 4.48 62.293333-7.466667 84.778666-32.896 4.48-5.504 8.448-11.477333 13.44-18.474667H446.72c-10.453333 0-12.970667-6.485333-9.472-14.933333 6.485333-15.445333 18.432-41.386667 25.429333-54.357333a13.44 13.44 0 0 1 12.458667-7.978667h181.461333c-0.981333 13.482667-0.981333 26.922667-2.986666 40.405333a212.608 212.608 0 0 1-40.874667 97.706667c-35.882667 47.36-82.773333 76.8-142.08 84.736-48.853333 6.485333-94.250667-2.986667-134.101333-32.853333-36.906667-27.946667-57.856-64.853333-63.317334-110.72-6.485333-54.357333 9.472-103.210667 42.368-146.090667 35.413333-46.336 82.261333-75.776 139.605334-86.229333 46.848-8.490667 91.733333-2.986667 132.096 24.405333 26.453333 17.493333 45.354667 41.386667 57.856 70.314667 2.986667 4.48 0.981333 6.997333-4.992 8.490666m165.034666 275.712c-45.397333-1.024-86.784-13.994667-121.685333-43.904a156.373333 156.373333 0 0 1-53.845333-96.213333c-8.96-56.32 6.485333-106.197333 40.405333-150.570667 36.394667-47.872 80.256-72.789333 139.605333-83.242666 50.858667-8.96 98.730667-4.010667 142.08 25.429333 39.381333 26.88 63.829333 63.317333 70.314667 111.146667 8.448 67.328-10.965333 122.154667-57.344 169.045333-32.896 33.408-73.301333 54.314667-119.68 63.786667-13.44 2.517333-26.88 2.986667-39.850667 4.522666z m118.613334-201.429333c-0.469333-6.485333-0.469333-11.477333-1.450667-16.469333-8.96-49.365333-54.357333-77.269333-101.717333-66.304-46.378667 10.453333-76.288 39.893333-87.253334 86.741333-8.96 38.912 9.984 78.293333 45.866667 94.250667 27.434667 11.946667 54.826667 10.453333 81.28-2.986667 39.381333-20.48 60.8-52.352 63.317333-95.232z" p-id="1879" fill="#3abc42"></path></svg>